<svg id="Layer_1" data-name="Layer 1" xmlns="http://www.w3.org/2000/svg" xmlns:xlink="http://www.w3.org/1999/xlink" viewBox="0 0 943.33 455.24"><defs><linearGradient id="Áåçûìÿííûé_ãðàäèåíò_49" x1="408.57" y1="559.6" x2="45.56" y2="381.22" gradientUnits="userSpaceOnUse"><stop offset="0.04" stop-color="#00b4d9"/><stop offset="0.11" stop-color="#18b8ce"/><stop offset="0.24" stop-color="#3ebebc"/><stop offset="0.36" stop-color="#59c2af"/><stop offset="0.46" stop-color="#69c5a7"/><stop offset="0.54" stop-color="#6fc6a4"/><stop offset="0.75" stop-color="#9bd297"/><stop offset="1" stop-color="#d2e286"/></linearGradient></defs><path d="M704,659a81.56,81.56,0,0,1-32.8-31.84q-11.94-20.7-11.94-48.4,0-27.39,12.1-48.24a82.19,82.19,0,0,1,33.12-32q21-11.14,47.13-11.14t47.13,11.14a82.16,82.16,0,0,1,33.11,32Q844,551.34,844,578.73T831.73,627a82.81,82.81,0,0,1-33.43,32Q777.12,670.13,751,670.12T704,659Zm73.56-47.44q11-11.46,11-32.8t-10.67-32.8a34.49,34.49,0,0,0-26.27-11.46q-15.93,0-26.43,11.3t-10.51,33q0,21.33,10.35,32.8A33.48,33.48,0,0,0,751,623,35.48,35.48,0,0,0,777.6,611.53Z" transform="translate(-28.67 -272.88)" fill="#00b4d8"/><path d="M972,624.1v46.18H944.3q-29.61,0-46.17-14.49T881.57,608.5V537.81H859.91V492.59h21.66V449.28H936v43.31h35.66v45.22H936v71.33q0,8,3.82,11.46t12.74,3.5Z" transform="translate(-28.67 -272.88)" fill="#00b4d8"/><path d="M626,533.91a82.26,82.26,0,0,0-33.12-32q-21-11.16-47.14-11.17A103.3,103.3,0,0,0,513,495.86c-1.06.35-2.11.73-3.17,1.11V429.8H455.36V591.4a78.39,78.39,0,0,0,9.87,38.91l.16.24a81.53,81.53,0,0,0,32.77,31.86c13.93,7.43,29.59,11.11,47,11.14h.64v0a107.37,107.37,0,0,0,24.53-2.84,95.71,95.71,0,0,0,22.12-8.27,83.17,83.17,0,0,0,33.45-32q12.25-20.85,12.25-48.24T626,533.91Zm-54.3,81a35.46,35.46,0,0,1-26.6,11.47A33.47,33.47,0,0,1,519.2,615c-4.86-5.35-8-12.39-9.41-21a74.78,74.78,0,0,1,0-23.64c1.46-8.73,4.63-15.79,9.57-21.11a35.24,35.24,0,0,1,11.12-8.12,36.35,36.35,0,0,1,15-3.16c.11,0,.22,0,.32,0A34.48,34.48,0,0,1,572,549.35q10.66,11.48,10.68,32.8T571.74,615Z" transform="translate(-28.67 -272.88)" fill="#00b4d8"/><path d="M305.42,728.12l-42.58-63.86a204.43,204.43,0,0,1-36.57,3.27q-54,0-99.35-25.38a189.06,189.06,0,0,1-71.78-70.42q-26.47-45-26.47-101.8t26.47-101.8A187.12,187.12,0,0,1,126.92,298q45.3-25.11,99.35-25.11,54.57,0,99.62,25.11a185.77,185.77,0,0,1,71.23,70.14q26.2,45,26.2,101.8,0,47.49-19.1,87.61t-52.41,66.87l81.34,103.71ZM161.31,541.71q23.46,26.49,65,26.48,40.93,0,64.68-26.75t23.74-71.51q0-45.85-23.74-72.32t-64.68-26.48q-41.49,0-65,26.48t-23.47,72.32Q137.84,515.25,161.31,541.71Z" transform="translate(-28.67 -272.88)" fill="url(#Áåçûìÿííûé_ãðàäèåíò_49)"/></svg>